<svg width="25" height="29" viewBox="0 0 25 29" fill="none" xmlns="http://www.w3.org/2000/svg">
<path d="M12.7824 6.60993C14.1496 6.60993 15.8633 5.73589 16.8838 4.5705C17.8081 3.51437 18.482 2.03943 18.482 0.564485C18.482 0.364184 18.4628 0.163883 18.4243 0C16.9031 0.0546276 15.0738 0.965087 13.9763 2.1851C13.1098 3.11377 12.3203 4.5705 12.3203 6.06366C12.3203 6.28217 12.3588 6.50068 12.378 6.57351C12.4743 6.59172 12.6284 6.60993 12.7824 6.60993ZM7.96853 28.643C9.83632 28.643 10.6643 27.4594 12.9942 27.4594C15.3627 27.4594 15.8826 28.6066 17.9621 28.6066C20.0032 28.6066 21.3704 26.8221 22.6605 25.074C24.1047 23.071 24.7016 21.1044 24.7401 21.0134C24.6053 20.977 20.6964 19.4656 20.6964 15.2229C20.6964 11.5446 23.7773 9.88758 23.9506 9.76012C21.9095 6.99233 18.8094 6.91949 17.9621 6.91949C15.6707 6.91949 13.803 8.23055 12.6284 8.23055C11.3575 8.23055 9.68227 6.99232 7.69895 6.99232C3.92487 6.99232 0.0930176 9.94221 0.0930176 15.5142C0.0930176 18.974 1.51793 22.634 3.27018 25.0012C4.77211 27.0042 6.08149 28.643 7.96853 28.643Z" fill="#000100"/>
</svg>
