<svg width="29" height="30" viewBox="0 0 29 30" fill="none" xmlns="http://www.w3.org/2000/svg">
<path fill-rule="evenodd" clip-rule="evenodd" d="M28.5322 14.9459C28.5322 13.9097 28.4398 12.9133 28.2684 11.9567H14.6029V17.6096H22.4117C22.0754 19.4363 21.0531 20.9841 19.5164 22.0203V25.6871H24.2057C26.9493 23.1429 28.5322 19.3965 28.5322 14.9459Z" fill="#4285F4"/>
<path fill-rule="evenodd" clip-rule="evenodd" d="M14.6027 29.2276C18.5203 29.2276 21.8048 27.919 24.2055 25.687L19.5162 22.0203C18.2169 22.8971 16.5549 23.4152 14.6027 23.4152C10.8236 23.4152 7.62489 20.8446 6.4839 17.3904H1.63635V21.1767C4.02385 25.9527 8.93076 29.2276 14.6027 29.2276Z" fill="#34A853"/>
<path fill-rule="evenodd" clip-rule="evenodd" d="M6.48386 17.3904C6.19367 16.5136 6.02879 15.577 6.02879 14.6138C6.02879 13.6506 6.19367 12.714 6.48386 11.8372V8.05087H1.63632C0.653618 10.0237 0.0930176 12.2557 0.0930176 14.6138C0.0930176 16.9719 0.653618 19.2039 1.63632 21.1767L6.48386 17.3904Z" fill="#FBBC05"/>
<path fill-rule="evenodd" clip-rule="evenodd" d="M14.6027 5.81231C16.733 5.81231 18.6456 6.54964 20.1494 7.99773L24.311 3.80623C21.7982 1.44809 18.5137 0 14.6027 0C8.93076 0 4.02385 3.27482 1.63635 8.05087L6.4839 11.8372C7.62489 8.38301 10.8236 5.81231 14.6027 5.81231Z" fill="#EA4335" fill-opacity="0.97"/>
</svg>
